<?xml version="1.0" encoding="UTF-8"?>
<svg xmlns="http://www.w3.org/2000/svg" viewBox="0 0 1200 200" width="1200" height="200">
  <defs>
    <radialGradient id="petGlowBanner" cx="50%" cy="50%" r="50%">
      <stop offset="0%" stop-color="#22c55e" stop-opacity="0.28"/>
      <stop offset="60%" stop-color="#f97316" stop-opacity="0.08"/>
      <stop offset="100%" stop-color="#22c55e" stop-opacity="0"/>
    </radialGradient>
    <radialGradient id="topGlow" cx="50%" cy="0%" r="60%">
      <stop offset="0%" stop-color="#22c55e" stop-opacity="0.12"/>
      <stop offset="100%" stop-color="#22c55e" stop-opacity="0"/>
    </radialGradient>
  </defs>

  <!-- Background -->
  <rect width="1200" height="200" rx="12" ry="12" fill="#0a0a0a"/>

  <!-- Dot grid pattern -->
  <g fill="#ffffff" opacity="0.04">
    <!-- Dots every 20px, r=0.8 -->
    <!-- Row 0 -->
    <circle cx="20" cy="20" r="0.8"/><circle cx="40" cy="20" r="0.8"/><circle cx="60" cy="20" r="0.8"/><circle cx="80" cy="20" r="0.8"/><circle cx="100" cy="20" r="0.8"/><circle cx="120" cy="20" r="0.8"/><circle cx="140" cy="20" r="0.8"/><circle cx="160" cy="20" r="0.8"/><circle cx="180" cy="20" r="0.8"/><circle cx="200" cy="20" r="0.8"/><circle cx="220" cy="20" r="0.8"/><circle cx="240" cy="20" r="0.8"/><circle cx="260" cy="20" r="0.8"/><circle cx="280" cy="20" r="0.8"/><circle cx="300" cy="20" r="0.8"/><circle cx="320" cy="20" r="0.8"/><circle cx="340" cy="20" r="0.8"/><circle cx="360" cy="20" r="0.8"/><circle cx="380" cy="20" r="0.8"/><circle cx="400" cy="20" r="0.8"/><circle cx="420" cy="20" r="0.8"/><circle cx="440" cy="20" r="0.8"/><circle cx="460" cy="20" r="0.8"/><circle cx="480" cy="20" r="0.8"/><circle cx="500" cy="20" r="0.8"/><circle cx="520" cy="20" r="0.8"/><circle cx="540" cy="20" r="0.8"/><circle cx="560" cy="20" r="0.8"/><circle cx="580" cy="20" r="0.8"/><circle cx="600" cy="20" r="0.8"/><circle cx="620" cy="20" r="0.8"/><circle cx="640" cy="20" r="0.8"/><circle cx="660" cy="20" r="0.8"/><circle cx="680" cy="20" r="0.8"/><circle cx="700" cy="20" r="0.8"/><circle cx="720" cy="20" r="0.8"/><circle cx="740" cy="20" r="0.8"/><circle cx="760" cy="20" r="0.8"/><circle cx="780" cy="20" r="0.8"/><circle cx="800" cy="20" r="0.8"/><circle cx="820" cy="20" r="0.8"/><circle cx="840" cy="20" r="0.8"/><circle cx="860" cy="20" r="0.8"/><circle cx="880" cy="20" r="0.8"/><circle cx="900" cy="20" r="0.8"/><circle cx="920" cy="20" r="0.8"/><circle cx="940" cy="20" r="0.8"/><circle cx="960" cy="20" r="0.8"/><circle cx="980" cy="20" r="0.8"/><circle cx="1000" cy="20" r="0.8"/><circle cx="1020" cy="20" r="0.8"/><circle cx="1040" cy="20" r="0.8"/><circle cx="1060" cy="20" r="0.8"/><circle cx="1080" cy="20" r="0.8"/><circle cx="1100" cy="20" r="0.8"/><circle cx="1120" cy="20" r="0.8"/><circle cx="1140" cy="20" r="0.8"/><circle cx="1160" cy="20" r="0.8"/><circle cx="1180" cy="20" r="0.8"/>
    <!-- Row 40 -->
    <circle cx="20" cy="40" r="0.8"/><circle cx="40" cy="40" r="0.8"/><circle cx="60" cy="40" r="0.8"/><circle cx="80" cy="40" r="0.8"/><circle cx="100" cy="40" r="0.8"/><circle cx="120" cy="40" r="0.8"/><circle cx="140" cy="40" r="0.8"/><circle cx="160" cy="40" r="0.8"/><circle cx="180" cy="40" r="0.8"/><circle cx="200" cy="40" r="0.8"/><circle cx="220" cy="40" r="0.8"/><circle cx="240" cy="40" r="0.8"/><circle cx="260" cy="40" r="0.8"/><circle cx="280" cy="40" r="0.8"/><circle cx="300" cy="40" r="0.8"/><circle cx="320" cy="40" r="0.8"/><circle cx="340" cy="40" r="0.8"/><circle cx="360" cy="40" r="0.8"/><circle cx="380" cy="40" r="0.8"/><circle cx="400" cy="40" r="0.8"/><circle cx="420" cy="40" r="0.8"/><circle cx="440" cy="40" r="0.8"/><circle cx="460" cy="40" r="0.8"/><circle cx="480" cy="40" r="0.8"/><circle cx="500" cy="40" r="0.8"/><circle cx="520" cy="40" r="0.8"/><circle cx="540" cy="40" r="0.8"/><circle cx="560" cy="40" r="0.8"/><circle cx="580" cy="40" r="0.8"/><circle cx="600" cy="40" r="0.8"/><circle cx="620" cy="40" r="0.8"/><circle cx="640" cy="40" r="0.8"/><circle cx="660" cy="40" r="0.8"/><circle cx="680" cy="40" r="0.8"/><circle cx="700" cy="40" r="0.8"/><circle cx="720" cy="40" r="0.8"/><circle cx="740" cy="40" r="0.8"/><circle cx="760" cy="40" r="0.8"/><circle cx="780" cy="40" r="0.8"/><circle cx="800" cy="40" r="0.8"/><circle cx="820" cy="40" r="0.8"/><circle cx="840" cy="40" r="0.8"/><circle cx="860" cy="40" r="0.8"/><circle cx="880" cy="40" r="0.8"/><circle cx="900" cy="40" r="0.8"/><circle cx="920" cy="40" r="0.8"/><circle cx="940" cy="40" r="0.8"/><circle cx="960" cy="40" r="0.8"/><circle cx="980" cy="40" r="0.8"/><circle cx="1000" cy="40" r="0.8"/><circle cx="1020" cy="40" r="0.8"/><circle cx="1040" cy="40" r="0.8"/><circle cx="1060" cy="40" r="0.8"/><circle cx="1080" cy="40" r="0.8"/><circle cx="1100" cy="40" r="0.8"/><circle cx="1120" cy="40" r="0.8"/><circle cx="1140" cy="40" r="0.8"/><circle cx="1160" cy="40" r="0.8"/><circle cx="1180" cy="40" r="0.8"/>
    <!-- Row 60 -->
    <circle cx="20" cy="60" r="0.8"/><circle cx="40" cy="60" r="0.8"/><circle cx="60" cy="60" r="0.8"/><circle cx="80" cy="60" r="0.8"/><circle cx="100" cy="60" r="0.8"/><circle cx="120" cy="60" r="0.8"/><circle cx="140" cy="60" r="0.8"/><circle cx="160" cy="60" r="0.8"/><circle cx="180" cy="60" r="0.8"/><circle cx="200" cy="60" r="0.8"/><circle cx="220" cy="60" r="0.8"/><circle cx="240" cy="60" r="0.8"/><circle cx="260" cy="60" r="0.8"/><circle cx="280" cy="60" r="0.8"/><circle cx="300" cy="60" r="0.8"/><circle cx="320" cy="60" r="0.8"/><circle cx="340" cy="60" r="0.8"/><circle cx="360" cy="60" r="0.8"/><circle cx="380" cy="60" r="0.8"/><circle cx="400" cy="60" r="0.8"/><circle cx="420" cy="60" r="0.8"/><circle cx="440" cy="60" r="0.8"/><circle cx="460" cy="60" r="0.8"/><circle cx="480" cy="60" r="0.8"/><circle cx="500" cy="60" r="0.8"/><circle cx="520" cy="60" r="0.8"/><circle cx="540" cy="60" r="0.8"/><circle cx="560" cy="60" r="0.8"/><circle cx="580" cy="60" r="0.8"/><circle cx="600" cy="60" r="0.8"/><circle cx="620" cy="60" r="0.8"/><circle cx="640" cy="60" r="0.8"/><circle cx="660" cy="60" r="0.8"/><circle cx="680" cy="60" r="0.8"/><circle cx="700" cy="60" r="0.8"/><circle cx="720" cy="60" r="0.8"/><circle cx="740" cy="60" r="0.8"/><circle cx="760" cy="60" r="0.8"/><circle cx="780" cy="60" r="0.8"/><circle cx="800" cy="60" r="0.8"/><circle cx="820" cy="60" r="0.8"/><circle cx="840" cy="60" r="0.8"/><circle cx="860" cy="60" r="0.8"/><circle cx="880" cy="60" r="0.8"/><circle cx="900" cy="60" r="0.8"/><circle cx="920" cy="60" r="0.8"/><circle cx="940" cy="60" r="0.8"/><circle cx="960" cy="60" r="0.8"/><circle cx="980" cy="60" r="0.8"/><circle cx="1000" cy="60" r="0.8"/><circle cx="1020" cy="60" r="0.8"/><circle cx="1040" cy="60" r="0.8"/><circle cx="1060" cy="60" r="0.8"/><circle cx="1080" cy="60" r="0.8"/><circle cx="1100" cy="60" r="0.8"/><circle cx="1120" cy="60" r="0.8"/><circle cx="1140" cy="60" r="0.8"/><circle cx="1160" cy="60" r="0.8"/><circle cx="1180" cy="60" r="0.8"/>
    <!-- Row 80 -->
    <circle cx="20" cy="80" r="0.8"/><circle cx="40" cy="80" r="0.8"/><circle cx="60" cy="80" r="0.8"/><circle cx="80" cy="80" r="0.8"/><circle cx="100" cy="80" r="0.8"/><circle cx="120" cy="80" r="0.8"/><circle cx="140" cy="80" r="0.8"/><circle cx="160" cy="80" r="0.8"/><circle cx="180" cy="80" r="0.8"/><circle cx="200" cy="80" r="0.8"/><circle cx="220" cy="80" r="0.8"/><circle cx="240" cy="80" r="0.8"/><circle cx="260" cy="80" r="0.8"/><circle cx="280" cy="80" r="0.8"/><circle cx="300" cy="80" r="0.8"/><circle cx="320" cy="80" r="0.8"/><circle cx="340" cy="80" r="0.8"/><circle cx="360" cy="80" r="0.8"/><circle cx="380" cy="80" r="0.8"/><circle cx="400" cy="80" r="0.8"/><circle cx="420" cy="80" r="0.8"/><circle cx="440" cy="80" r="0.8"/><circle cx="460" cy="80" r="0.8"/><circle cx="480" cy="80" r="0.8"/><circle cx="500" cy="80" r="0.8"/><circle cx="520" cy="80" r="0.8"/><circle cx="540" cy="80" r="0.8"/><circle cx="560" cy="80" r="0.8"/><circle cx="580" cy="80" r="0.8"/><circle cx="600" cy="80" r="0.8"/><circle cx="620" cy="80" r="0.8"/><circle cx="640" cy="80" r="0.8"/><circle cx="660" cy="80" r="0.8"/><circle cx="680" cy="80" r="0.8"/><circle cx="700" cy="80" r="0.8"/><circle cx="720" cy="80" r="0.8"/><circle cx="740" cy="80" r="0.8"/><circle cx="760" cy="80" r="0.8"/><circle cx="780" cy="80" r="0.8"/><circle cx="800" cy="80" r="0.8"/><circle cx="820" cy="80" r="0.8"/><circle cx="840" cy="80" r="0.8"/><circle cx="860" cy="80" r="0.8"/><circle cx="880" cy="80" r="0.8"/><circle cx="900" cy="80" r="0.8"/><circle cx="920" cy="80" r="0.8"/><circle cx="940" cy="80" r="0.8"/><circle cx="960" cy="80" r="0.8"/><circle cx="980" cy="80" r="0.8"/><circle cx="1000" cy="80" r="0.8"/><circle cx="1020" cy="80" r="0.8"/><circle cx="1040" cy="80" r="0.8"/><circle cx="1060" cy="80" r="0.8"/><circle cx="1080" cy="80" r="0.8"/><circle cx="1100" cy="80" r="0.8"/><circle cx="1120" cy="80" r="0.8"/><circle cx="1140" cy="80" r="0.8"/><circle cx="1160" cy="80" r="0.8"/><circle cx="1180" cy="80" r="0.8"/>
    <!-- Row 100 -->
    <circle cx="20" cy="100" r="0.8"/><circle cx="40" cy="100" r="0.8"/><circle cx="60" cy="100" r="0.8"/><circle cx="80" cy="100" r="0.8"/><circle cx="100" cy="100" r="0.8"/><circle cx="120" cy="100" r="0.8"/><circle cx="140" cy="100" r="0.8"/><circle cx="160" cy="100" r="0.8"/><circle cx="180" cy="100" r="0.8"/><circle cx="200" cy="100" r="0.8"/><circle cx="220" cy="100" r="0.8"/><circle cx="240" cy="100" r="0.8"/><circle cx="260" cy="100" r="0.8"/><circle cx="280" cy="100" r="0.8"/><circle cx="300" cy="100" r="0.8"/><circle cx="320" cy="100" r="0.8"/><circle cx="340" cy="100" r="0.8"/><circle cx="360" cy="100" r="0.8"/><circle cx="380" cy="100" r="0.8"/><circle cx="400" cy="100" r="0.8"/><circle cx="420" cy="100" r="0.8"/><circle cx="440" cy="100" r="0.8"/><circle cx="460" cy="100" r="0.8"/><circle cx="480" cy="100" r="0.8"/><circle cx="500" cy="100" r="0.8"/><circle cx="520" cy="100" r="0.8"/><circle cx="540" cy="100" r="0.8"/><circle cx="560" cy="100" r="0.8"/><circle cx="580" cy="100" r="0.8"/><circle cx="600" cy="100" r="0.8"/><circle cx="620" cy="100" r="0.8"/><circle cx="640" cy="100" r="0.8"/><circle cx="660" cy="100" r="0.8"/><circle cx="680" cy="100" r="0.8"/><circle cx="700" cy="100" r="0.8"/><circle cx="720" cy="100" r="0.8"/><circle cx="740" cy="100" r="0.8"/><circle cx="760" cy="100" r="0.8"/><circle cx="780" cy="100" r="0.8"/><circle cx="800" cy="100" r="0.8"/><circle cx="820" cy="100" r="0.8"/><circle cx="840" cy="100" r="0.8"/><circle cx="860" cy="100" r="0.8"/><circle cx="880" cy="100" r="0.8"/><circle cx="900" cy="100" r="0.8"/><circle cx="920" cy="100" r="0.8"/><circle cx="940" cy="100" r="0.8"/><circle cx="960" cy="100" r="0.8"/><circle cx="980" cy="100" r="0.8"/><circle cx="1000" cy="100" r="0.8"/><circle cx="1020" cy="100" r="0.8"/><circle cx="1040" cy="100" r="0.8"/><circle cx="1060" cy="100" r="0.8"/><circle cx="1080" cy="100" r="0.8"/><circle cx="1100" cy="100" r="0.8"/><circle cx="1120" cy="100" r="0.8"/><circle cx="1140" cy="100" r="0.8"/><circle cx="1160" cy="100" r="0.8"/><circle cx="1180" cy="100" r="0.8"/>
    <!-- Row 120 -->
    <circle cx="20" cy="120" r="0.8"/><circle cx="40" cy="120" r="0.8"/><circle cx="60" cy="120" r="0.8"/><circle cx="80" cy="120" r="0.8"/><circle cx="100" cy="120" r="0.8"/><circle cx="120" cy="120" r="0.8"/><circle cx="140" cy="120" r="0.8"/><circle cx="160" cy="120" r="0.8"/><circle cx="180" cy="120" r="0.8"/><circle cx="200" cy="120" r="0.8"/><circle cx="220" cy="120" r="0.8"/><circle cx="240" cy="120" r="0.8"/><circle cx="260" cy="120" r="0.8"/><circle cx="280" cy="120" r="0.8"/><circle cx="300" cy="120" r="0.8"/><circle cx="320" cy="120" r="0.8"/><circle cx="340" cy="120" r="0.8"/><circle cx="360" cy="120" r="0.8"/><circle cx="380" cy="120" r="0.8"/><circle cx="400" cy="120" r="0.8"/><circle cx="420" cy="120" r="0.8"/><circle cx="440" cy="120" r="0.8"/><circle cx="460" cy="120" r="0.8"/><circle cx="480" cy="120" r="0.8"/><circle cx="500" cy="120" r="0.8"/><circle cx="520" cy="120" r="0.8"/><circle cx="540" cy="120" r="0.8"/><circle cx="560" cy="120" r="0.8"/><circle cx="580" cy="120" r="0.8"/><circle cx="600" cy="120" r="0.8"/><circle cx="620" cy="120" r="0.8"/><circle cx="640" cy="120" r="0.8"/><circle cx="660" cy="120" r="0.8"/><circle cx="680" cy="120" r="0.8"/><circle cx="700" cy="120" r="0.8"/><circle cx="720" cy="120" r="0.8"/><circle cx="740" cy="120" r="0.8"/><circle cx="760" cy="120" r="0.8"/><circle cx="780" cy="120" r="0.8"/><circle cx="800" cy="120" r="0.8"/><circle cx="820" cy="120" r="0.8"/><circle cx="840" cy="120" r="0.8"/><circle cx="860" cy="120" r="0.8"/><circle cx="880" cy="120" r="0.8"/><circle cx="900" cy="120" r="0.8"/><circle cx="920" cy="120" r="0.8"/><circle cx="940" cy="120" r="0.8"/><circle cx="960" cy="120" r="0.8"/><circle cx="980" cy="120" r="0.8"/><circle cx="1000" cy="120" r="0.8"/><circle cx="1020" cy="120" r="0.8"/><circle cx="1040" cy="120" r="0.8"/><circle cx="1060" cy="120" r="0.8"/><circle cx="1080" cy="120" r="0.8"/><circle cx="1100" cy="120" r="0.8"/><circle cx="1120" cy="120" r="0.8"/><circle cx="1140" cy="120" r="0.8"/><circle cx="1160" cy="120" r="0.8"/><circle cx="1180" cy="120" r="0.8"/>
    <!-- Row 140 -->
    <circle cx="20" cy="140" r="0.8"/><circle cx="40" cy="140" r="0.8"/><circle cx="60" cy="140" r="0.8"/><circle cx="80" cy="140" r="0.8"/><circle cx="100" cy="140" r="0.8"/><circle cx="120" cy="140" r="0.8"/><circle cx="140" cy="140" r="0.8"/><circle cx="160" cy="140" r="0.8"/><circle cx="180" cy="140" r="0.8"/><circle cx="200" cy="140" r="0.8"/><circle cx="220" cy="140" r="0.8"/><circle cx="240" cy="140" r="0.8"/><circle cx="260" cy="140" r="0.8"/><circle cx="280" cy="140" r="0.8"/><circle cx="300" cy="140" r="0.8"/><circle cx="320" cy="140" r="0.8"/><circle cx="340" cy="140" r="0.8"/><circle cx="360" cy="140" r="0.8"/><circle cx="380" cy="140" r="0.8"/><circle cx="400" cy="140" r="0.8"/><circle cx="420" cy="140" r="0.8"/><circle cx="440" cy="140" r="0.8"/><circle cx="460" cy="140" r="0.8"/><circle cx="480" cy="140" r="0.8"/><circle cx="500" cy="140" r="0.8"/><circle cx="520" cy="140" r="0.8"/><circle cx="540" cy="140" r="0.8"/><circle cx="560" cy="140" r="0.8"/><circle cx="580" cy="140" r="0.8"/><circle cx="600" cy="140" r="0.8"/><circle cx="620" cy="140" r="0.8"/><circle cx="640" cy="140" r="0.8"/><circle cx="660" cy="140" r="0.8"/><circle cx="680" cy="140" r="0.8"/><circle cx="700" cy="140" r="0.8"/><circle cx="720" cy="140" r="0.8"/><circle cx="740" cy="140" r="0.8"/><circle cx="760" cy="140" r="0.8"/><circle cx="780" cy="140" r="0.8"/><circle cx="800" cy="140" r="0.8"/><circle cx="820" cy="140" r="0.8"/><circle cx="840" cy="140" r="0.8"/><circle cx="860" cy="140" r="0.8"/><circle cx="880" cy="140" r="0.8"/><circle cx="900" cy="140" r="0.8"/><circle cx="920" cy="140" r="0.8"/><circle cx="940" cy="140" r="0.8"/><circle cx="960" cy="140" r="0.8"/><circle cx="980" cy="140" r="0.8"/><circle cx="1000" cy="140" r="0.8"/><circle cx="1020" cy="140" r="0.8"/><circle cx="1040" cy="140" r="0.8"/><circle cx="1060" cy="140" r="0.8"/><circle cx="1080" cy="140" r="0.8"/><circle cx="1100" cy="140" r="0.8"/><circle cx="1120" cy="140" r="0.8"/><circle cx="1140" cy="140" r="0.8"/><circle cx="1160" cy="140" r="0.8"/><circle cx="1180" cy="140" r="0.8"/>
    <!-- Row 160 -->
    <circle cx="20" cy="160" r="0.8"/><circle cx="40" cy="160" r="0.8"/><circle cx="60" cy="160" r="0.8"/><circle cx="80" cy="160" r="0.8"/><circle cx="100" cy="160" r="0.8"/><circle cx="120" cy="160" r="0.8"/><circle cx="140" cy="160" r="0.8"/><circle cx="160" cy="160" r="0.8"/><circle cx="180" cy="160" r="0.8"/><circle cx="200" cy="160" r="0.8"/><circle cx="220" cy="160" r="0.8"/><circle cx="240" cy="160" r="0.8"/><circle cx="260" cy="160" r="0.8"/><circle cx="280" cy="160" r="0.8"/><circle cx="300" cy="160" r="0.8"/><circle cx="320" cy="160" r="0.8"/><circle cx="340" cy="160" r="0.8"/><circle cx="360" cy="160" r="0.8"/><circle cx="380" cy="160" r="0.8"/><circle cx="400" cy="160" r="0.8"/><circle cx="420" cy="160" r="0.8"/><circle cx="440" cy="160" r="0.8"/><circle cx="460" cy="160" r="0.8"/><circle cx="480" cy="160" r="0.8"/><circle cx="500" cy="160" r="0.8"/><circle cx="520" cy="160" r="0.8"/><circle cx="540" cy="160" r="0.8"/><circle cx="560" cy="160" r="0.8"/><circle cx="580" cy="160" r="0.8"/><circle cx="600" cy="160" r="0.8"/><circle cx="620" cy="160" r="0.8"/><circle cx="640" cy="160" r="0.8"/><circle cx="660" cy="160" r="0.8"/><circle cx="680" cy="160" r="0.8"/><circle cx="700" cy="160" r="0.8"/><circle cx="720" cy="160" r="0.8"/><circle cx="740" cy="160" r="0.8"/><circle cx="760" cy="160" r="0.8"/><circle cx="780" cy="160" r="0.8"/><circle cx="800" cy="160" r="0.8"/><circle cx="820" cy="160" r="0.8"/><circle cx="840" cy="160" r="0.8"/><circle cx="860" cy="160" r="0.8"/><circle cx="880" cy="160" r="0.8"/><circle cx="900" cy="160" r="0.8"/><circle cx="920" cy="160" r="0.8"/><circle cx="940" cy="160" r="0.8"/><circle cx="960" cy="160" r="0.8"/><circle cx="980" cy="160" r="0.8"/><circle cx="1000" cy="160" r="0.8"/><circle cx="1020" cy="160" r="0.8"/><circle cx="1040" cy="160" r="0.8"/><circle cx="1060" cy="160" r="0.8"/><circle cx="1080" cy="160" r="0.8"/><circle cx="1100" cy="160" r="0.8"/><circle cx="1120" cy="160" r="0.8"/><circle cx="1140" cy="160" r="0.8"/><circle cx="1160" cy="160" r="0.8"/><circle cx="1180" cy="160" r="0.8"/>
    <!-- Row 180 -->
    <circle cx="20" cy="180" r="0.8"/><circle cx="40" cy="180" r="0.8"/><circle cx="60" cy="180" r="0.8"/><circle cx="80" cy="180" r="0.8"/><circle cx="100" cy="180" r="0.8"/><circle cx="120" cy="180" r="0.8"/><circle cx="140" cy="180" r="0.8"/><circle cx="160" cy="180" r="0.8"/><circle cx="180" cy="180" r="0.8"/><circle cx="200" cy="180" r="0.8"/><circle cx="220" cy="180" r="0.8"/><circle cx="240" cy="180" r="0.8"/><circle cx="260" cy="180" r="0.8"/><circle cx="280" cy="180" r="0.8"/><circle cx="300" cy="180" r="0.8"/><circle cx="320" cy="180" r="0.8"/><circle cx="340" cy="180" r="0.8"/><circle cx="360" cy="180" r="0.8"/><circle cx="380" cy="180" r="0.8"/><circle cx="400" cy="180" r="0.8"/><circle cx="420" cy="180" r="0.8"/><circle cx="440" cy="180" r="0.8"/><circle cx="460" cy="180" r="0.8"/><circle cx="480" cy="180" r="0.8"/><circle cx="500" cy="180" r="0.8"/><circle cx="520" cy="180" r="0.8"/><circle cx="540" cy="180" r="0.8"/><circle cx="560" cy="180" r="0.8"/><circle cx="580" cy="180" r="0.8"/><circle cx="600" cy="180" r="0.8"/><circle cx="620" cy="180" r="0.8"/><circle cx="640" cy="180" r="0.8"/><circle cx="660" cy="180" r="0.8"/><circle cx="680" cy="180" r="0.8"/><circle cx="700" cy="180" r="0.8"/><circle cx="720" cy="180" r="0.8"/><circle cx="740" cy="180" r="0.8"/><circle cx="760" cy="180" r="0.8"/><circle cx="780" cy="180" r="0.8"/><circle cx="800" cy="180" r="0.8"/><circle cx="820" cy="180" r="0.8"/><circle cx="840" cy="180" r="0.8"/><circle cx="860" cy="180" r="0.8"/><circle cx="880" cy="180" r="0.8"/><circle cx="900" cy="180" r="0.8"/><circle cx="920" cy="180" r="0.8"/><circle cx="940" cy="180" r="0.8"/><circle cx="960" cy="180" r="0.8"/><circle cx="980" cy="180" r="0.8"/><circle cx="1000" cy="180" r="0.8"/><circle cx="1020" cy="180" r="0.8"/><circle cx="1040" cy="180" r="0.8"/><circle cx="1060" cy="180" r="0.8"/><circle cx="1080" cy="180" r="0.8"/><circle cx="1100" cy="180" r="0.8"/><circle cx="1120" cy="180" r="0.8"/><circle cx="1140" cy="180" r="0.8"/><circle cx="1160" cy="180" r="0.8"/><circle cx="1180" cy="180" r="0.8"/>
  </g>

  <!-- Glow behind pixel pet (centered at 600, 100) -->
  <ellipse cx="600" cy="100" rx="120" ry="70" fill="url(#petGlowBanner)"/>

  <!-- Pixel pet centered: 13x8 grid at 4x scale = 52x32px, offset to center in 200px tall, x=574,y=52 -->
  <!-- 13*4=52, 8*4=32. center x = (1200-52)/2 = 574, center y = (200-32)/2 = 84 -->
  <!-- Pet is to the left of text, placed at x=490, y=58 -->
  <!-- Full layout: pet at ~x=490, text block centered at ~x=620 -->
  <!-- Actually center everything: pet left, text right -->
  <!-- Let's center both as a group: pet width=52, gap=16, text ~250px wide = 52+16+250=318, start at (1200-318)/2=441 -->
  <g shape-rendering="crispEdges" transform="translate(441, 68)">
    <!-- 13x8 grid at 4px scale -->
    <!-- Left eye (2,2) bright green -->
    <rect x="8" y="8" width="4" height="4" fill="#4ade80"/>
    <!-- Right eye (5,2) bright green -->
    <rect x="20" y="8" width="4" height="4" fill="#4ade80"/>
    <!-- Body row 1 (1,3,6,1) green -->
    <rect x="4" y="12" width="24" height="4" fill="#22c55e"/>
    <!-- Left pupil (2,3) black -->
    <rect x="8" y="12" width="4" height="4" fill="#000000"/>
    <!-- Right pupil (5,3) black -->
    <rect x="20" y="12" width="4" height="4" fill="#000000"/>
    <!-- Body row 2 (1,4,6,1) green -->
    <rect x="4" y="16" width="24" height="4" fill="#22c55e"/>
    <!-- Left foot (2,5,2,1) green -->
    <rect x="8" y="20" width="8" height="4" fill="#22c55e"/>
    <!-- Right foot (5,5,2,1) green -->
    <rect x="20" y="20" width="8" height="4" fill="#22c55e"/>
  </g>

  <!-- Text block: "VIBE ISLAND" + subtitle -->
  <text x="508" y="93" font-family="'JetBrains Mono', 'Courier New', 'Lucida Console', monospace" font-size="28" font-weight="700" fill="#f0f0f0" letter-spacing="6" text-anchor="start">VIBE ISLAND</text>
  <text x="510" y="118" font-family="'JetBrains Mono', 'Courier New', 'Lucida Console', monospace" font-size="13" fill="#6b7280" letter-spacing="1" text-anchor="start">Dynamic Island for your AI agents</text>
</svg>
